<mxfile host="app.diagrams.net" modified="2021-03-02T06:21:21.546Z" agent="5.0 (Windows NT 10.0; Win64; x64) AppleWebKit/537.36 (KHTML, like Gecko) Chrome/88.0.4324.190 Safari/537.36" etag="JOmU5dDLFwaC_QXpSlRq" version="14.4.3" type="github">
  <diagram id="C5RBs43oDa-KdzZeNtuy" name="Page-1">
    <mxGraphModel dx="1662" dy="762" grid="1" gridSize="10" guides="1" tooltips="1" connect="1" arrows="1" fold="1" page="1" pageScale="1" pageWidth="827" pageHeight="1169" math="0" shadow="0">
      <root>
        <mxCell id="WIyWlLk6GJQsqaUBKTNV-0" />
        <mxCell id="WIyWlLk6GJQsqaUBKTNV-1" parent="WIyWlLk6GJQsqaUBKTNV-0" />
        <mxCell id="H7_40uMS-2cokdlfVP3S-10" value="// 消息通知更新类型&#xa;update_info" style="swimlane;fontStyle=1;align=center;verticalAlign=top;childLayout=stackLayout;horizontal=1;startSize=40;horizontalStack=0;resizeParent=1;resizeParentMax=0;resizeLast=0;collapsible=1;marginBottom=0;" parent="WIyWlLk6GJQsqaUBKTNV-1" vertex="1">
          <mxGeometry x="290" y="10" width="170" height="530" as="geometry" />
        </mxCell>
        <mxCell id="H7_40uMS-2cokdlfVP3S-11" value="id int &#xa;// 链接功能ID ,版本号+功能ID&#xa;feature_id  []string &#xa;&#xa;version_name string &#xa;// 通知类型&#xa;notice_type string &#xa;&#xa;&#xa;// 通知描述&#xa;describtion string &#xa; &#xa;// 创建者&#xa;creator_name string&#xa;&#xa;status int &#xa;&#xa;page_views int &#xa;create_time int64&#xa;release_time int64&#xa;" style="text;strokeColor=none;fillColor=none;align=left;verticalAlign=top;spacingLeft=4;spacingRight=4;overflow=hidden;rotatable=0;points=[[0,0.5],[1,0.5]];portConstraint=eastwest;" parent="H7_40uMS-2cokdlfVP3S-10" vertex="1">
          <mxGeometry y="40" width="170" height="380" as="geometry" />
        </mxCell>
        <mxCell id="H7_40uMS-2cokdlfVP3S-12" value="" style="line;strokeWidth=1;fillColor=none;align=left;verticalAlign=middle;spacingTop=-1;spacingLeft=3;spacingRight=3;rotatable=0;labelPosition=right;points=[];portConstraint=eastwest;" parent="H7_40uMS-2cokdlfVP3S-10" vertex="1">
          <mxGeometry y="420" width="170" height="8" as="geometry" />
        </mxCell>
        <mxCell id="H7_40uMS-2cokdlfVP3S-13" value="- AddUpdateInfo() &#xa;- GetUpdateInfoList()&#xa;- GetUpdateInfo()" style="text;strokeColor=none;fillColor=none;align=left;verticalAlign=top;spacingLeft=4;spacingRight=4;overflow=hidden;rotatable=0;points=[[0,0.5],[1,0.5]];portConstraint=eastwest;" parent="H7_40uMS-2cokdlfVP3S-10" vertex="1">
          <mxGeometry y="428" width="170" height="102" as="geometry" />
        </mxCell>
        <mxCell id="H7_40uMS-2cokdlfVP3S-14" value="// 功能区&#xa;feature_zone" style="swimlane;fontStyle=1;align=center;verticalAlign=top;childLayout=stackLayout;horizontal=1;startSize=50;horizontalStack=0;resizeParent=1;resizeParentMax=0;resizeLast=0;collapsible=1;marginBottom=0;" parent="WIyWlLk6GJQsqaUBKTNV-1" vertex="1">
          <mxGeometry x="50" y="10" width="160" height="590" as="geometry" />
        </mxCell>
        <mxCell id="H7_40uMS-2cokdlfVP3S-15" value="id int&#xa;// 功能区ID &#xa;feature_id string&#xa; &#xa;pic_url string&#xa;// 一级功能区&#xa;f_level_feature_id []int&#xa;f_level_feature_name []string&#xa;// 二级功能区&#xa;second_level_feature_id []int&#xa;second_level_feature_name []string&#xa;// 创建人姓名&#xa;creator_name string&#xa;// 发布时间&#xa;release_time int64&#xa;// 状态 是否已发布&#xa;status int&#xa;&#xa;// 功能内容&#xa;content string &#xa;// 参与人员 , 包括产品团队 ，&#xa;// 开发团队，运营人员 ，&#xa;// 测试团队 ，业务方 ，&#xa;// UI/UE/动效&#xa; &#xa;&#xa;&#xa;" style="text;strokeColor=none;fillColor=none;align=left;verticalAlign=top;spacingLeft=4;spacingRight=4;overflow=hidden;rotatable=0;points=[[0,0.5],[1,0.5]];portConstraint=eastwest;" parent="H7_40uMS-2cokdlfVP3S-14" vertex="1">
          <mxGeometry y="50" width="160" height="400" as="geometry" />
        </mxCell>
        <mxCell id="H7_40uMS-2cokdlfVP3S-16" value="" style="line;strokeWidth=1;fillColor=none;align=left;verticalAlign=middle;spacingTop=-1;spacingLeft=3;spacingRight=3;rotatable=0;labelPosition=right;points=[];portConstraint=eastwest;" parent="H7_40uMS-2cokdlfVP3S-14" vertex="1">
          <mxGeometry y="450" width="160" height="8" as="geometry" />
        </mxCell>
        <mxCell id="H7_40uMS-2cokdlfVP3S-17" value="- GetBy" style="text;strokeColor=none;fillColor=none;align=left;verticalAlign=top;spacingLeft=4;spacingRight=4;overflow=hidden;rotatable=0;points=[[0,0.5],[1,0.5]];portConstraint=eastwest;" parent="H7_40uMS-2cokdlfVP3S-14" vertex="1">
          <mxGeometry y="458" width="160" height="132" as="geometry" />
        </mxCell>
        <mxCell id="H7_40uMS-2cokdlfVP3S-27" value="" style="endArrow=classic;startArrow=classic;html=1;" parent="WIyWlLk6GJQsqaUBKTNV-1" edge="1">
          <mxGeometry width="50" height="50" relative="1" as="geometry">
            <mxPoint x="410" y="430" as="sourcePoint" />
            <mxPoint x="460" y="380" as="targetPoint" />
          </mxGeometry>
        </mxCell>
      </root>
    </mxGraphModel>
  </diagram>
</mxfile>
